<svg width="590.7125px" height="122px" xmlns="http://www.w3.org/2000/svg" viewBox="-45.35624999999999 14 590.7125 122" style="background:#fff" preserveAspectRatio="xMidYMid"><defs><filter id="editing-marble" x="-100%" y="-100%" width="300%" height="300%"><feFlood flood-color="#01b0cb" result="flood-1"></feFlood><feComposite operator="in" in="flood-1" in2="SourceAlpha" result="flood-2"></feComposite><feTurbulence baseFrequency="0.07" type="fractalNoise" numOctaves="1" seed="2" result="bs-1"></feTurbulence><feGaussianBlur stdDeviation="1" in="flood-2" result="bs-2"></feGaussianBlur><feDisplacementMap scale="110" in="bs-2" in2="bs-1" result="bs-3"></feDisplacementMap><feComposite operator="in" in="bs-3" in2="SourceAlpha" result="texture"></feComposite><feMerge><feMergeNode in="SourceGraphic"></feMergeNode><feMergeNode in="texture"></feMergeNode></feMerge></filter></defs><g filter="url(#editing-marble)"><g transform="translate(38.79998254776001, 98.68000221252441)"><path d="M6.21-31.17L6.21-31.17L6.21-31.17Q4.03-32.83 4.03-36.38L4.03-36.38L4.03-36.38Q4.03-39.94 6.37-41.79L6.37-41.79L6.37-41.79Q8.70-43.65 12.74-43.65L12.74-43.65L12.74-43.65Q15.30-43.65 21.38-42.75L21.38-42.75L25.73-42.11L25.73-42.11Q27.90-41.86 30.18-41.86L30.18-41.86L30.18-41.86Q32.45-41.86 33.98-42.82L33.98-42.82L33.98-42.82Q36.29-40.77 36.29-37.82L36.29-37.82L36.29-37.82Q36.29-34.88 33.66-32.77L33.66-32.77L33.66-32.77Q30.98-30.53 27.52-30.53L27.52-30.53L27.52-30.53Q25.86-30.53 23.17-30.98L23.17-30.98L23.17-30.98Q20.03-21.12 20.03-14.27L20.03-14.27L20.03-14.27Q20.03-7.42 23.49-3.84L23.49-3.84L23.49-3.84Q21.89-0.96 19.52 0.16L19.52 0.16L19.52 0.16Q17.15 1.28 13.60 1.28L13.60 1.28L13.60 1.28Q10.05 1.28 7.84-0.67L7.84-0.67L7.84-0.67Q5.63-2.62 5.63-6.66L5.63-6.66L5.63-6.66Q5.63-11.33 8.19-19.01L8.19-19.01L8.19-19.01Q10.75-26.62 14.59-32.45L14.59-32.45L14.59-32.45Q12.74-32.64 10.82-32.64L10.82-32.64L10.82-32.64Q6.85-32.64 6.21-31.17ZM53.89-17.98L53.89-17.98L53.89-17.98Q56.19-22.08 56.19-26.24L56.19-26.24L56.19-26.24Q56.19-28.99 54.21-28.99L54.21-28.99L54.21-28.99Q52.67-28.99 51.07-26.37L51.07-26.37L51.07-26.37Q49.41-23.74 48.90-20.35L48.90-20.35L45.57 0L32.32 1.28L38.85-32.64L49.41-33.92L48.26-27.46L48.26-27.46Q51.39-33.92 58.43-33.92L58.43-33.92L58.43-33.92Q62.14-33.92 64.16-32L64.16-32L64.16-32Q66.18-30.08 66.18-26.14L66.18-26.14L66.18-26.14Q66.18-22.21 63.58-19.71L63.58-19.71L63.58-19.71Q60.99-17.22 56.58-17.22L56.58-17.22L56.58-17.22Q54.66-17.22 53.89-17.98ZM69.98-1.92L69.98-1.92L69.98-1.92Q68.48-3.58 67.81-6.21L67.81-6.21L67.81-6.21Q67.14-8.83 67.14-13.12L67.14-13.12L67.14-13.12Q67.14-17.41 68.61-21.31L68.61-21.31L68.61-21.31Q70.08-25.22 72.77-28.03L72.77-28.03L72.77-28.03Q78.27-33.92 87.36-33.92L87.36-33.92L87.36-33.92Q90.62-33.92 92.99-32.83L92.99-32.83L103.94-33.92L99.20-8.96L99.20-8.96Q99.01-8.19 99.01-6.78L99.01-6.78L99.01-6.78Q99.01-5.38 99.87-4.48L99.87-4.48L99.87-4.48Q100.74-3.58 102.02-3.46L102.02-3.46L102.02-3.46Q101.38-1.28 99.04 0L99.04 0L99.04 0Q96.70 1.28 94.08 1.28L94.08 1.28L94.08 1.28Q91.46 1.28 89.70 0.29L89.70 0.29L89.70 0.29Q87.94-0.70 87.42-2.37L87.42-2.37L87.42-2.37Q86.40-0.77 84.22 0.26L84.22 0.26L84.22 0.26Q82.05 1.28 79.14 1.28L79.14 1.28L79.14 1.28Q76.22 1.28 73.86 0.51L73.86 0.51L73.86 0.51Q71.49-0.26 69.98-1.92ZM83.49-27.90L83.49-27.90L83.49-27.90Q82.75-26.75 82.11-24.80L82.11-24.80L82.11-24.80Q81.47-22.85 80.42-17.63L80.42-17.63L80.42-17.63Q79.36-12.42 79.36-8.70L79.36-8.70L79.36-8.70Q79.36-4.99 79.94-3.90L79.94-3.90L79.94-3.90Q80.51-2.82 81.54-2.82L81.54-2.82L81.54-2.82Q83.58-2.82 85.09-4.77L85.09-4.77L85.09-4.77Q86.59-6.72 87.17-10.18L87.17-10.18L90.56-28.93L90.56-28.93Q89.22-30.08 87.65-30.08L87.65-30.08L87.65-30.08Q86.08-30.08 85.15-29.57L85.15-29.57L85.15-29.57Q84.22-29.06 83.49-27.90ZM130.62-31.55L130.62-31.55L130.62-31.55Q132.74-33.92 136.38-33.92L136.38-33.92L136.38-33.92Q138.62-33.92 140.35-32.70L140.35-32.70L140.35-32.70Q142.08-31.49 142.08-29.22L142.08-29.22L142.08-29.22Q142.08-26.94 141.38-24.51L141.38-24.51L141.38-24.51Q140.67-22.08 139.58-19.58L139.58-19.58L139.58-19.58Q137.41-14.72 134.40-10.69L134.40-10.69L134.40-10.69Q130.18-4.86 126.11-1.79L126.11-1.79L126.11-1.79Q122.05 1.28 117.63 1.28L117.63 1.28L117.63 1.28Q114.05 1.28 111.87 0.45L111.87 0.45L111.87 0.45Q111.49-12.99 111.01-17.79L111.01-17.79L111.01-17.79Q110.53-22.59 110.14-25.22L110.14-25.22L110.14-25.22Q109.50-30.34 107.58-31.55L107.58-31.55L107.58-31.55Q109.06-32.83 110.50-33.38L110.50-33.38L110.50-33.38Q111.94-33.92 114.91-33.92L114.91-33.92L114.91-33.92Q117.89-33.92 120-31.58L120-31.58L120-31.58Q122.11-29.25 122.53-25.12L122.53-25.12L122.53-25.12Q122.94-20.99 122.94-16L122.94-16L122.94-16Q122.94-11.01 122.56-4.99L122.56-4.99L122.56-4.99Q124.54-6.40 126.66-10.69L126.66-10.69L126.66-10.69Q129.54-16.64 130.56-23.81L130.56-23.81L130.56-23.81Q130.88-25.98 130.88-28.29L130.88-28.29L130.88-28.29Q130.88-30.59 130.62-31.55ZM169.73-10.82L169.73-10.82L169.73-10.82Q171.33-9.73 171.33-7.33L171.33-7.33L171.33-7.33Q171.33-4.93 170.11-3.39L170.11-3.39L170.11-3.39Q168.90-1.86 166.91-0.83L166.91-0.83L166.91-0.83Q162.82 1.28 158.40 1.28L158.40 1.28L158.40 1.28Q153.98 1.28 151.39 0.32L151.39 0.32L151.39 0.32Q148.80-0.64 147.07-2.43L147.07-2.43L147.07-2.43Q143.68-5.82 143.68-12.03L143.68-12.03L143.68-12.03Q143.68-21.70 148.93-27.58L148.93-27.58L148.93-27.58Q154.56-33.92 164.35-33.92L164.35-33.92L164.35-33.92Q170.43-33.92 173.44-31.36L173.44-31.36L173.44-31.36Q175.68-29.44 175.68-26.30L175.68-26.30L175.68-26.30Q175.68-15.04 156.22-15.04L156.22-15.04L156.22-15.04Q155.97-13.38 155.97-11.97L155.97-11.97L155.97-11.97Q155.97-9.02 157.28-7.90L157.28-7.90L157.28-7.90Q158.59-6.78 161.02-6.78L161.02-6.78L161.02-6.78Q163.46-6.78 166.05-7.90L166.05-7.90L166.05-7.90Q168.64-9.02 169.73-10.82ZM156.67-17.79L156.67-17.79L156.67-17.79Q161.22-17.79 163.84-20.61L163.84-20.61L163.84-20.61Q166.46-23.30 166.46-27.58L166.46-27.58L166.46-27.58Q166.46-29.06 165.92-29.86L165.92-29.86L165.92-29.86Q165.38-30.66 164.29-30.66L164.29-30.66L164.29-30.66Q163.20-30.66 162.27-30.24L162.27-30.24L162.27-30.24Q161.34-29.82 160.38-28.42L160.38-28.42L160.38-28.42Q158.02-25.22 156.67-17.79ZM193.15-3.52L193.15-3.52L193.15-3.52Q191.17 1.28 184.83 1.28L184.83 1.28L184.83 1.28Q181.63 1.28 179.58-0.96L179.58-0.96L179.58-0.96Q177.92-2.82 177.92-4.93L177.92-4.93L177.92-4.93Q177.92-9.73 180.16-20.22L180.16-20.22L184.83-44.80L197.82-46.08L191.62-13.70L191.62-13.70Q190.53-8.96 190.53-7.30L190.53-7.30L190.53-7.30Q190.53-3.65 193.15-3.52ZM216.90-31.17L216.90-31.17L216.90-31.17Q214.72-32.83 214.72-36.38L214.72-36.38L214.72-36.38Q214.72-39.94 217.06-41.79L217.06-41.79L217.06-41.79Q219.39-43.65 223.42-43.65L223.42-43.65L223.42-43.65Q225.98-43.65 232.06-42.75L232.06-42.75L236.42-42.11L236.42-42.11Q238.59-41.86 240.86-41.86L240.86-41.86L240.86-41.86Q243.14-41.86 244.67-42.82L244.67-42.82L244.67-42.82Q246.98-40.77 246.98-37.82L246.98-37.82L246.98-37.82Q246.98-34.88 244.35-32.77L244.35-32.77L244.35-32.77Q241.66-30.53 238.21-30.53L238.21-30.53L238.21-30.53Q236.54-30.53 233.86-30.98L233.86-30.98L233.86-30.98Q230.72-21.12 230.72-14.27L230.72-14.27L230.72-14.27Q230.72-7.42 234.18-3.84L234.18-3.84L234.18-3.84Q232.58-0.96 230.21 0.16L230.21 0.16L230.21 0.16Q227.84 1.28 224.29 1.28L224.29 1.28L224.29 1.28Q220.74 1.28 218.53-0.67L218.53-0.67L218.53-0.67Q216.32-2.62 216.32-6.66L216.32-6.66L216.32-6.66Q216.32-11.33 218.88-19.01L218.88-19.01L218.88-19.01Q221.44-26.62 225.28-32.45L225.28-32.45L225.28-32.45Q223.42-32.64 221.50-32.64L221.50-32.64L221.50-32.64Q217.54-32.64 216.90-31.17ZM264.58-17.98L264.58-17.98L264.58-17.98Q266.88-22.08 266.88-26.24L266.88-26.24L266.88-26.24Q266.88-28.99 264.90-28.99L264.90-28.99L264.90-28.99Q263.36-28.99 261.76-26.37L261.76-26.37L261.76-26.37Q260.10-23.74 259.58-20.35L259.58-20.35L256.26 0L243.01 1.28L249.54-32.64L260.10-33.92L258.94-27.46L258.94-27.46Q262.08-33.92 269.12-33.92L269.12-33.92L269.12-33.92Q272.83-33.92 274.85-32L274.85-32L274.85-32Q276.86-30.08 276.86-26.14L276.86-26.14L276.86-26.14Q276.86-22.21 274.27-19.71L274.27-19.71L274.27-19.71Q271.68-17.22 267.26-17.22L267.26-17.22L267.26-17.22Q265.34-17.22 264.58-17.98ZM280.67-1.92L280.67-1.92L280.67-1.92Q279.17-3.58 278.50-6.21L278.50-6.21L278.50-6.21Q277.82-8.83 277.82-13.12L277.82-13.12L277.82-13.12Q277.82-17.41 279.30-21.31L279.30-21.31L279.30-21.31Q280.77-25.22 283.46-28.03L283.46-28.03L283.46-28.03Q288.96-33.92 298.05-33.92L298.05-33.92L298.05-33.92Q301.31-33.92 303.68-32.83L303.68-32.83L314.62-33.92L309.89-8.96L309.89-8.96Q309.70-8.19 309.70-6.78L309.70-6.78L309.70-6.78Q309.70-5.38 310.56-4.48L310.56-4.48L310.56-4.48Q311.42-3.58 312.70-3.46L312.70-3.46L312.70-3.46Q312.06-1.28 309.73 0L309.73 0L309.73 0Q307.39 1.28 304.77 1.28L304.77 1.28L304.77 1.28Q302.14 1.28 300.38 0.29L300.38 0.29L300.38 0.29Q298.62-0.70 298.11-2.37L298.11-2.37L298.11-2.37Q297.09-0.77 294.91 0.26L294.91 0.26L294.91 0.26Q292.74 1.28 289.82 1.28L289.82 1.28L289.82 1.28Q286.91 1.28 284.54 0.51L284.54 0.51L284.54 0.51Q282.18-0.26 280.67-1.92ZM294.18-27.90L294.18-27.90L294.18-27.90Q293.44-26.75 292.80-24.80L292.80-24.80L292.80-24.80Q292.16-22.85 291.10-17.63L291.10-17.63L291.10-17.63Q290.05-12.42 290.05-8.70L290.05-8.70L290.05-8.70Q290.05-4.99 290.62-3.90L290.62-3.90L290.62-3.90Q291.20-2.82 292.22-2.82L292.22-2.82L292.22-2.82Q294.27-2.82 295.78-4.77L295.78-4.77L295.78-4.77Q297.28-6.72 297.86-10.18L297.86-10.18L301.25-28.93L301.25-28.93Q299.90-30.08 298.34-30.08L298.34-30.08L298.34-30.08Q296.77-30.08 295.84-29.57L295.84-29.57L295.84-29.57Q294.91-29.06 294.18-27.90ZM349.25-26.62L349.25-26.62L349.25-26.62Q349.25-23.94 347.01-22.27L347.01-22.27L347.01-22.27Q344.77-20.61 341.12-20.61L341.12-20.61L341.12-20.61Q339.58-20.61 338.69-21.06L338.69-21.06L338.69-21.06Q339.39-22.72 339.62-24.80L339.62-24.80L339.62-24.80Q339.84-26.88 339.84-27.46L339.84-27.46L339.84-27.46Q339.84-30.14 337.98-30.14L337.98-30.14L337.98-30.14Q336.70-30.14 335.26-28.54L335.26-28.54L335.26-28.54Q333.82-26.94 332.61-24.45L332.61-24.45L332.61-24.45Q329.92-18.69 329.92-12.86L329.92-12.86L329.92-12.86Q329.92-9.66 331.14-8.22L331.14-8.22L331.14-8.22Q332.35-6.78 335.04-6.78L335.04-6.78L335.04-6.78Q338.75-6.78 341.70-9.86L341.70-9.86L341.70-9.86Q342.53-10.82 342.98-11.90L342.98-11.90L342.98-11.90Q345.41-10.62 345.41-7.10L345.41-7.10L345.41-7.10Q345.41-3.52 341.44-1.15L341.44-1.15L341.44-1.15Q337.34 1.28 330.82 1.28L330.82 1.28L330.82 1.28Q317.82 1.28 317.82-12.48L317.82-12.48L317.82-12.48Q317.82-22.53 323.52-28.29L323.52-28.29L323.52-28.29Q329.02-33.92 339.14-33.92L339.14-33.92L339.14-33.92Q349.25-33.92 349.25-26.62ZM367.49-30.34L367.49-30.34L367.49-30.34Q370.94-33.92 378.24-33.92L378.24-33.92L378.24-33.92Q382.27-33.92 384.48-31.78L384.48-31.78L384.48-31.78Q386.69-29.63 386.69-25.70L386.69-25.70L386.69-25.70Q386.69-21.76 384.48-18.98L384.48-18.98L384.48-18.98Q382.27-16.19 378.18-15.04L378.18-15.04L378.18-15.04Q378.50-13.76 378.94-12.42L378.94-12.42L379.84-9.86L379.84-9.86Q381.06-6.59 382.02-5.44L382.02-5.44L382.02-5.44Q382.98-4.29 384.26-3.90L384.26-3.90L384.26-3.90Q383.55-1.28 380.99 0.13L380.99 0.13L380.99 0.13Q378.94 1.28 376.13 1.28L376.13 1.28L376.13 1.28Q367.87 1.28 366.78-11.46L366.78-11.46L366.78-11.46Q366.59-13.25 366.59-15.04L366.59-15.04L366.59-15.04Q369.79-15.94 372.03-18.94L372.03-18.94L372.03-18.94Q374.27-21.95 374.27-25.47L374.27-25.47L374.27-25.47Q374.27-28.99 371.78-28.99L371.78-28.99L371.78-28.99Q369.98-28.99 368.58-27.01L368.58-27.01L368.58-27.01Q367.17-25.02 366.53-21.63L366.53-21.63L362.30 0L349.38 1.28L358.34-44.80L371.20-46.08L369.73-38.46L369.73-38.46Q368.77-33.09 367.49-30.34ZM408.77-22.46L408.77-22.46L408.77-22.46Q409.66-24.83 409.66-26.88L409.66-26.88L409.66-26.88Q409.66-30.66 406.59-30.66L406.59-30.66L406.59-30.66Q404.99-30.66 403.68-29.22L403.68-29.22L403.68-29.22Q402.37-27.78 402.37-25.98L402.37-25.98L402.37-25.98Q402.37-24.70 403.39-23.68L403.39-23.68L403.39-23.68Q404.86-22.27 408.64-19.97L408.64-19.97L408.64-19.97Q412.42-17.66 413.86-15.78L413.86-15.78L413.86-15.78Q415.30-13.89 415.30-11.30L415.30-11.30L415.30-11.30Q415.30-8.70 414.05-6.34L414.05-6.34L414.05-6.34Q412.80-3.97 410.56-2.30L410.56-2.30L410.56-2.30Q405.76 1.28 398.08 1.28L398.08 1.28L398.08 1.28Q393.92 1.28 390.72-0.90L390.72-0.90L390.72-0.90Q387.52-3.01 387.52-5.50L387.52-5.50L387.52-5.50Q387.52-8 389.34-9.47L389.34-9.47L389.34-9.47Q391.17-10.94 393.86-10.94L393.86-10.94L393.86-10.94Q396.54-10.94 398.21-9.92L398.21-9.92L398.21-9.92Q397.38-7.81 397.38-6.40L397.38-6.40L397.38-6.40Q397.38-2.18 400.96-2.18L400.96-2.18L400.96-2.18Q402.50-2.18 403.52-3.14L403.52-3.14L403.52-3.14Q404.54-4.10 404.54-5.76L404.54-5.76L404.54-5.76Q404.54-9.02 399.04-12.48L399.04-12.48L399.04-12.48Q394.56-15.42 393.54-16.58L393.54-16.58L393.54-16.58Q391.81-18.62 391.81-21.18L391.81-21.18L391.81-21.18Q391.81-23.74 393.02-26.18L393.02-26.18L393.02-26.18Q394.24-28.61 396.48-30.34L396.48-30.34L396.48-30.34Q401.15-33.92 409.28-33.92L409.28-33.92L409.28-33.92Q413.44-33.92 415.90-32.26L415.90-32.26L415.90-32.26Q418.37-30.59 418.37-27.78L418.37-27.78L418.37-27.78Q418.37-24.96 416.67-23.36L416.67-23.36L416.67-23.36Q414.98-21.76 411.90-21.76L411.90-21.76L411.90-21.76Q409.79-21.76 408.77-22.46Z" fill="#01b0cb"></path></g></g><style>text {
  font-size: 64px;
  font-family: Arial Black;
  dominant-baseline: central;
  text-anchor: middle;
}</style></svg>